<?xml version="1.0" encoding="UTF-8"?><svg id="Layer_2" xmlns="http://www.w3.org/2000/svg" viewBox="0 0 1519.95 433.97"><defs><style>.cls-1{fill:#fff;}.cls-2{fill:#7398ff;}</style></defs><g id="Layer_1-2"><g><g><path class="cls-1" d="M978.52,129.51l-2.84,36.19c-7.19-12.58-18.48-22.36-33.9-29.4-15.42-7.01-33.46-10.51-54.08-10.51-16.23,0-31.51,3.17-45.75,9.56-14.28,6.35-26.6,15.05-36.97,26.08-10.4,11.07-18.63,24.5-24.68,40.4-6.09,15.86-9.11,32.94-9.11,51.21s3.03,35.38,9.11,51.24c6.05,15.86,14.28,29.29,24.68,40.25,10.37,10.99,22.69,19.66,36.97,26.01,14.24,6.38,29.51,9.55,45.75,9.55,45.19,0,74.52-13.32,87.99-39.95l2.84,36.45h60.36V129.51h-60.36Zm-23.35,176.31c-13.69,13.8-30.47,20.73-50.36,20.73s-36.23-6.97-49.8-20.84c-13.61-13.91-20.4-31.47-20.4-52.68s6.75-39.11,20.29-52.87c13.5-13.76,30.18-20.62,49.91-20.62s36.67,6.86,50.36,20.62c13.65,13.76,20.51,31.32,20.51,52.76s-6.86,39.07-20.51,52.9Z"/><path class="cls-1" d="M1185.67,133.35c-13.24,5.05-24.83,14.09-34.75,27.08l-2.66-30.92h-60.54v247.07h63.2v-123.55c0-22.5,7.6-40.4,22.8-53.64,15.2-13.24,36.71-19.85,64.52-19.85v-53.75c-21.8,0-39.33,2.51-52.57,7.56Z"/><path class="cls-1" d="M1456.75,39.57v126.13c-7.16-12.58-18.45-22.36-33.9-29.4-15.42-7.01-33.46-10.51-54.08-10.51-16.23,0-31.47,3.17-45.75,9.56-14.24,6.35-26.6,15.05-37.08,26.08-10.44,11.07-18.7,24.5-24.79,40.4-6.05,15.86-9.11,32.94-9.11,51.21s3.06,35.38,9.11,51.24c6.09,15.86,14.35,29.29,24.79,40.25,10.48,10.99,22.84,19.66,37.08,26.01,14.28,6.38,29.51,9.55,45.75,9.55,45.23,0,74.52-13.32,87.99-39.95l2.66,36.45h60.54V39.57h-63.2Zm-20.62,266.14c-13.76,13.87-30.51,20.84-50.25,20.84s-36.19-6.97-49.8-20.84c-13.61-13.91-20.4-31.47-20.4-52.68s6.75-39.11,20.29-52.87c13.54-13.76,30.18-20.62,49.91-20.62s36.67,6.9,50.36,20.73c13.69,13.83,20.51,31.4,20.51,52.76s-6.86,38.77-20.62,52.68Z"/><path class="cls-1" d="M728.73,201.82c-6.05-15.9-14.31-29.33-24.79-40.4-10.44-11.03-22.84-19.74-37.08-26.08-14.28-6.38-29.51-9.56-45.75-9.56-20.62,0-38.66,3.5-54.08,10.51-15.42,7.05-26.75,16.82-33.9,29.4V39.57h-63.2V376.58h60.58l2.62-36.45c13.47,26.64,42.79,39.95,87.99,39.95,16.23,0,31.47-3.17,45.75-9.55,14.24-6.35,26.64-15.02,37.08-26.01,10.48-10.96,18.74-24.39,24.79-40.25,6.09-15.86,9.11-32.94,9.11-51.24s-3.03-35.34-9.11-51.21Zm-74.93,103.89c-13.61,13.87-30.21,20.84-49.8,20.84s-36.49-6.97-50.25-20.84c-13.76-13.91-20.62-31.47-20.62-52.68s6.82-38.92,20.51-52.76c13.69-13.83,30.47-20.73,50.36-20.73s36.38,6.86,49.91,20.62c13.54,13.76,20.29,31.36,20.29,52.87s-6.79,38.77-20.4,52.68Z"/></g><g><path class="cls-2" d="M357.97,311.69l-168,97c-19.46,11.23-43.81-2.82-43.81-25.29V189.4c0-22.49,24.34-36.55,43.81-25.29l168,97c19.46,11.23,19.46,39.34,0,50.57Z"/><path class="cls-2" d="M116.75,29.2V404.77c0,16.11-13.08,29.2-29.23,29.2H29.23c-16.14,0-29.23-13.08-29.23-29.2V29.2C0,13.08,13.08,0,29.23,0h58.3c16.14,0,29.23,13.08,29.23,29.2Z"/></g></g></g></svg>